<svg width="824" height="185" viewBox="0 0 824 185" fill="none" xmlns="http://www.w3.org/2000/svg">
<path d="M797.97 12.5801H665.67C658.021 12.5801 651.82 18.7809 651.82 26.4301V158.73C651.82 166.379 658.021 172.58 665.67 172.58H797.97C805.619 172.58 811.82 166.379 811.82 158.73V26.4301C811.82 18.7809 805.619 12.5801 797.97 12.5801Z" fill="#D7E8F7"/>
<path d="M651.82 12.5801H491.82V172.58H651.82V12.5801Z" fill="#D7E8F7"/>
<path d="M491.82 12.5801H331.82V172.58H491.82V12.5801Z" fill="#D7E8F7"/>
<path d="M331.81 12.5801H171.81V172.58H331.81V12.5801Z" fill="#D7E8F7"/>
<path d="M157.96 12.5801H25.6601C18.0109 12.5801 11.8101 18.7809 11.8101 26.4301V158.73C11.8101 166.379 18.0109 172.58 25.6601 172.58H157.96C165.609 172.58 171.81 166.379 171.81 158.73V26.4301C171.81 18.7809 165.609 12.5801 157.96 12.5801Z" fill="#D7E8F7"/>
<path d="M797.96 0.77002C805.03 0.77002 811.46 3.65999 816.1 8.29999C820.75 12.95 823.63 19.37 823.63 26.44V158.73C823.63 165.8 820.75 172.22 816.1 176.86C811.46 181.51 805.03 184.4 797.96 184.4H665.67C660.87 184.4 656.5 184.4 651.82 184.4H491.82H331.82H171.81C167.13 184.4 162.76 184.4 157.96 184.4H25.67C18.6 184.4 12.18 181.51 7.53 176.86C2.89 172.22 0 165.8 0 158.73V26.44C0 19.37 2.89 12.95 7.53 8.29999C12.18 3.65999 18.6 0.77002 25.67 0.77002H157.96C162.76 0.77002 167.13 0.77002 171.81 0.77002H331.82H491.82C594.2 0.77002 695.64 0.77002 797.96 0.77002ZM160 158.75V158.73V26.44V26.41C160 25.87 159.76 25.37 159.39 25C159.02 24.63 158.51 24.39 157.96 24.39H25.67C25.12 24.39 24.61 24.63 24.23 25C23.86 25.38 23.62 25.89 23.62 26.44V158.73C23.62 159.28 23.86 159.79 24.23 160.16C24.61 160.54 25.12 160.77 25.67 160.77H157.96C158.51 160.77 159.02 160.54 159.39 160.16C159.76 159.79 160 159.29 160 158.75ZM320 160.77V24.39H183.62V26.44V158.73V160.77H320ZM480.01 160.77V24.39H343.63V160.77H480.01ZM640.01 158.73V26.44V24.39H503.63V160.77H640.01V158.73ZM797.96 24.39H665.67C665.12 24.39 664.61 24.63 664.24 25C663.87 25.37 663.64 25.87 663.63 26.41V26.44V158.73V158.75C663.64 159.29 663.87 159.79 664.24 160.16C664.61 160.54 665.12 160.77 665.67 160.77H797.96C798.51 160.77 799.02 160.54 799.4 160.16C799.78 159.79 800.01 159.28 800.01 158.73V26.44C800.01 25.89 799.78 25.38 799.4 25C799.02 24.63 798.51 24.39 797.96 24.39Z" fill="#0B5789"/>
</svg>
