<svg width="113" height="113" viewBox="0 0 113 113" fill="none" xmlns="http://www.w3.org/2000/svg">
<path fill-rule="evenodd" clip-rule="evenodd" d="M44.95 56.0198C44.95 59.0898 46.18 61.8598 48.18 63.8698C50.19 65.8698 52.97 67.1097 56.03 67.1097C59.11 67.1097 61.88 65.8698 63.89 63.8698C65.89 61.8598 67.13 59.0898 67.13 56.0198C67.13 52.9498 65.89 50.1697 63.89 48.1597C61.88 46.1597 59.11 44.9297 56.03 44.9297C52.97 44.9297 50.19 46.1597 48.18 48.1597C46.18 50.1697 44.95 52.9498 44.95 56.0198ZM70.35 93.9998C70.63 93.8898 70.92 93.7797 71.2 93.6697L70.35 93.9998ZM40.72 18.4297V3.82974C40.72 1.85974 42.32 0.259766 44.29 0.259766H68.52C70.5 0.259766 72.09 1.85974 72.09 3.82974V18.1398L82.1 8.12976C83.49 6.73976 85.76 6.73976 87.15 8.12976L104.28 25.2598C105.69 26.6598 105.69 28.9198 104.28 30.3298L94.29 40.3198H108.58C110.56 40.3198 112.17 41.9297 112.17 43.9097V68.1298C112.17 70.0998 110.56 71.7098 108.58 71.7098H93.91L104.28 82.0798C105.69 83.4698 105.69 85.7398 104.28 87.1298L87.15 104.27C85.76 105.67 83.49 105.67 82.1 104.27L71.73 93.8898V108.56C71.73 110.54 70.12 112.15 68.15 112.15H43.92C41.94 112.15 40.34 110.54 40.34 108.56V94.2698L30.35 104.27C28.94 105.67 26.68 105.67 25.29 104.27L8.15997 87.1298C6.75997 85.7398 6.75997 83.4698 8.15997 82.0798L18.53 71.7098H3.85999C1.87999 71.7098 0.280029 70.0998 0.280029 68.1298V43.9097C0.280029 41.9297 1.87999 40.3198 3.85999 40.3198H18.15L8.15997 30.3298C6.75997 28.9198 6.75997 26.6598 8.15997 25.2598L25.29 8.12976C26.68 6.73976 28.94 6.73976 30.35 8.12976L40.66 18.4597L40.72 18.4297Z" fill="#318ECA"/>
<path fill-rule="evenodd" clip-rule="evenodd" d="M46.47 61.6597L43.91 63.1198L43.9 63.0997V63.1097L43.89 63.0798L43.85 63.0098L43.82 62.9598L43.81 62.9498L43.77 62.8898L43.75 62.8398L43.71 62.7698L43.7 62.7498L43.68 62.7197L43.67 62.6898L43.65 62.6597L43.61 62.5898L43.6 62.5598V62.5698L43.59 62.5397L43.52 62.4097L43.5 62.3698L43.49 62.3597L43.47 62.3098L43.44 62.2598V62.2498L43.41 62.1898L43.38 62.1198V62.1097L43.37 62.0997L43.34 62.0298L43.31 61.9797L43.3 61.9498L43.28 61.9197L43.27 61.8898L43.24 61.8098L43.22 61.7798L43.23 61.7997L43.19 61.7197L43.18 61.6898L43.17 61.6597L43.13 61.5698L43.12 61.5497L43.11 61.5397L43.07 61.4398L43.04 61.3698L43.03 61.3398L43.02 61.3198L42.99 61.2297L42.98 61.2098L42.97 61.1797L42.94 61.1097L42.93 61.0898L42.9 60.9897L42.88 60.9598L42.87 60.9297L42.86 60.8998L42.85 60.8597L42.82 60.7897L42.81 60.7598L42.79 60.6898L42.75 60.5997L42.76 60.6097L42.75 60.5898L42.73 60.5198L42.71 60.4697L42.7 60.4398L42.69 60.4197L42.68 60.3698L42.67 60.3398L42.64 60.2598L42.63 60.2098L42.62 60.1898L42.61 60.1597L42.6 60.1298L42.58 60.0497L42.56 59.9998L42.57 60.0198L42.56 59.9797L42.53 59.8698L42.52 59.8398L42.51 59.8098L42.49 59.7297L42.48 59.6898L42.47 59.6597L42.46 59.6298L42.45 59.5898L42.43 59.4998L42.42 59.4697L42.41 59.4498V59.4097L42.39 59.3698L42.37 59.2897V59.2598V59.2698L42.35 59.1898L42.34 59.1498V59.1198L42.32 59.0397L42.31 58.9998L42.3 58.9697V58.9398L42.29 58.8998L42.28 58.8597L42.27 58.8198L42.26 58.7498L42.25 58.7197L42.24 58.6697V58.6398L42.23 58.6097L42.22 58.5198L42.21 58.4998V58.4598L42.2 58.4197L42.19 58.3898L42.18 58.3398L42.17 58.2598V58.2297L42.16 58.1998V58.1597L42.15 58.1298L42.14 58.0397L42.13 58.0098V57.9797L42.12 57.9398V57.8998L42.11 57.8698V57.8298L42.1 57.7498V57.7197L42.09 57.6797L42.08 57.5997V57.6097V57.5698L42.07 57.4897V57.4598L42.06 57.4197L42.05 57.3398V57.2997V57.3098V57.2297L42.04 57.1498V57.1597V57.1198L42.03 57.0397V56.9998V56.9697L42.02 56.9398V56.8998V56.8098L42.01 56.7798V56.7397V56.6998V56.6697V56.5798L42 56.5497V56.5098V56.4797V56.4398V56.4097V56.3198V56.2897V56.2498V56.2098L41.99 56.1797V56.0898V56.0598V56.0198H44.95C44.95 58.0798 45.5 59.9997 46.47 61.6597ZM48.29 63.9697C49.68 65.3297 51.44 66.3197 53.39 66.7897L52.69 69.6597L52.64 69.6498L52.61 69.6398H52.59L52.51 69.6198L52.46 69.5997L52.48 69.6097L52.39 69.5898L52.36 69.5798L52.33 69.5698L52.25 69.5497L52.21 69.5397L52.17 69.5198L52.14 69.5098H52.12L52.08 69.4998L52.05 69.4897L52 69.4797L51.93 69.4498H51.91L51.86 69.4297L51.83 69.4197L51.79 69.4097L51.71 69.3898L51.68 69.3798L51.63 69.3597L51.62 69.3497L51.59 69.3398L51.54 69.3298L51.48 69.3098L51.44 69.2997L51.39 69.2798L51.36 69.2698L51.33 69.2598L51.3 69.2397L51.27 69.2297L51.19 69.2098L51.16 69.1898L51.13 69.1797L51.09 69.1697L51.06 69.1597L50.97 69.1198L50.95 69.1097L50.89 69.0898L50.84 69.0698L50.81 69.0598L50.74 69.0298L50.71 69.0198L50.67 69.0098L50.64 68.9897L50.61 68.9797L50.56 68.9598L50.55 68.9498L50.52 68.9398L50.42 68.8998L50.39 68.8898L50.36 68.8698L50.33 68.8597L50.32 68.8497L50.25 68.8198L50.22 68.8098L50.19 68.7997L50.13 68.7698L50.1 68.7598L50.07 68.7397L50 68.7098L49.95 68.6797L49.96 68.6898L49.91 68.6597L49.86 68.6398L49.83 68.6298L49.8 68.6097L49.77 68.5997L49.7 68.5598L49.65 68.5298H49.64L49.61 68.5098L49.56 68.4897L49.53 68.4697H49.52L49.45 68.4297L49.4 68.3998L49.41 68.4097L49.34 68.3698L49.27 68.3298H49.26L49.23 68.3098L49.18 68.2897L49.15 68.2698L49.1 68.2397L49.07 68.2197H49.06L49.01 68.1898L48.98 68.1697L48.92 68.1298L48.86 68.0997L48.83 68.0798L48.75 68.0298H48.74L48.65 67.9797L48.63 67.9598L48.6 67.9398L48.57 67.9197L48.54 67.9097L48.51 67.8898L48.48 67.8698L48.43 67.8398L48.37 67.7997L48.36 67.7897L48.31 67.7598L48.28 67.7397L48.26 67.7197L48.19 67.6797L48.16 67.6597L48.14 67.6498L48.06 67.5898L48.03 67.5698L47.99 67.5397L47.96 67.5198L47.95 67.5098L47.92 67.4897L47.86 67.4498L47.83 67.4297L47.8 67.4097L47.75 67.3698L47.73 67.3497L47.69 67.3298L47.66 67.3098L47.64 67.2897L47.62 67.2698L47.56 67.2297L47.53 67.2098L47.47 67.1597L47.44 67.1398L47.42 67.1298L47.34 67.0598L47.31 67.0397L47.29 67.0198L47.26 66.9998L47.24 66.9797L47.18 66.9398L47.16 66.9197L47.1 66.8698L47.05 66.8298L47.02 66.8098L46.97 66.7598L46.92 66.7197L46.89 66.6898L46.87 66.6797L46.84 66.6498L46.81 66.6298L46.76 66.5898L46.74 66.5598L46.71 66.5397L46.66 66.4897V66.4998L46.64 66.4797L46.59 66.4297L46.56 66.4097L46.54 66.3798L46.49 66.3398L46.46 66.3098L46.41 66.2598L46.39 66.2397V66.2498L46.34 66.1998L46.31 66.1697L46.26 66.1298H46.27L46.25 66.1097L48.29 63.9697ZM56.32 67.0997C58.38 67.0497 60.29 66.4498 61.91 65.4398L63.48 67.9398L63.45 67.9598L63.42 67.9797L63.35 68.0198L63.31 68.0397L63.27 68.0698L63.18 68.1198H63.19L63.16 68.1298L63.09 68.1697L63.06 68.1898L63.03 68.2098L63 68.2197L62.95 68.2498L62.92 68.2698L62.85 68.3098L62.8 68.3398L62.74 68.3698L62.67 68.4097L62.68 68.3998L62.65 68.4197L62.56 68.4697L62.53 68.4797L62.52 68.4897L62.49 68.4998L62.44 68.5298L62.41 68.5397L62.38 68.5598L62.3 68.5997L62.28 68.6097L62.24 68.6298L62.21 68.6398L62.16 68.6597L62.11 68.6898L62.12 68.6797L62.07 68.7098L62 68.7397L61.97 68.7598L61.94 68.7698L61.87 68.7997L61.83 68.8198L61.85 68.8098L61.77 68.8497L61.74 68.8597L61.71 68.8698L61.68 68.8898L61.63 68.9097L61.56 68.9398H61.54L61.49 68.9697L61.46 68.9797L61.43 68.9897L61.4 69.0098L61.37 69.0198L61.34 69.0298L61.26 69.0598L61.21 69.0798L61.2 69.0898L61.12 69.1198L61.09 69.1298L61.01 69.1597L60.98 69.1697L60.95 69.1797L60.91 69.1898L60.88 69.2098L60.81 69.2297L60.77 69.2397L60.74 69.2598L60.71 69.2698L60.66 69.2897L60.63 69.2997H60.61L60.54 69.3298L60.49 69.3398L60.46 69.3497L60.42 69.3698L60.39 69.3798L60.36 69.3898L60.28 69.4097L60.25 69.4197L60.2 69.4398H60.18L60.15 69.4498L60.05 69.4797L60.02 69.4897H60L59.97 69.4998L59.92 69.5198L59.89 69.5298L59.86 69.5397L59.82 69.5497L59.74 69.5698L59.71 69.5798L59.68 69.5898L59.59 69.6097H59.58L59.5 69.6298L59.45 69.6398L59.42 69.6498L59.4 69.6597L59.3 69.6797H59.28L59.2 69.6998L59.16 69.7098L59.13 69.7197L59.05 69.7397H59.02L58.99 69.7498L58.94 69.7598H58.92L58.88 69.7698L58.84 69.7798L58.76 69.7997H58.72L58.7 69.8098L58.67 69.8198H58.62L58.54 69.8398H58.51L58.47 69.8497L58.44 69.8597H58.39L58.36 69.8698L58.28 69.8798L58.25 69.8898H58.21L58.17 69.8998H58.14L58.06 69.9197H58.03L57.99 69.9297H57.95H57.92L57.88 69.9398H57.85L57.76 69.9598H57.73H57.69L57.61 69.9697L57.59 69.9797H57.5L57.46 69.9897H57.43L57.35 69.9998H57.31H57.32L57.24 70.0098H57.16H57.17L57.14 70.0198H57.05L57.01 70.0298H56.98H56.94H56.91L56.82 70.0397H56.79H56.75H56.72L56.68 70.0497H56.6H56.56H56.52H56.49H56.45L56.42 70.0598L56.32 67.0997ZM64.19 63.5698C65.5 62.1398 66.45 60.3598 66.88 58.3898L69.77 58.9998H69.76V59.0397L69.74 59.1198L69.73 59.1498L69.72 59.1898L69.71 59.2698V59.2598L69.7 59.2897L69.68 59.3698L69.67 59.4097L69.66 59.4498V59.4697L69.64 59.5497L69.62 59.5898L69.63 59.5798L69.61 59.6597L69.6 59.6898L69.59 59.7297L69.57 59.8098L69.56 59.8398L69.54 59.8898L69.53 59.9197V59.9398L69.52 59.9697L69.51 59.9998L69.5 60.0497L69.47 60.1298L69.46 60.1597L69.45 60.1898V60.2098L69.43 60.2598L69.41 60.3398L69.4 60.3698L69.38 60.4197V60.4398L69.37 60.4697L69.35 60.5198L69.32 60.5898V60.6097L69.31 60.6398L69.29 60.6898L69.28 60.7197L69.27 60.7598L69.26 60.7897L69.23 60.8597L69.22 60.8998L69.2 60.9297L69.19 60.9598L69.18 60.9897L69.14 61.0898L69.13 61.1097L69.11 61.1797L69.09 61.2098V61.2297L69.05 61.3198L69.04 61.3497L69.03 61.3798L69.01 61.4097L69 61.4398L68.98 61.4897L68.97 61.5198L68.96 61.5397L68.93 61.6097L68.91 61.6597L68.89 61.6898L68.88 61.7197L68.87 61.7498L68.83 61.8298L68.84 61.8098L68.83 61.8497L68.79 61.9197L68.78 61.9498L68.76 61.9797L68.72 62.0698L68.71 62.0898L68.68 62.1597L68.66 62.1898V62.1998L68.63 62.2598L68.61 62.3098L68.58 62.3597L68.57 62.3898L68.55 62.4197L68.54 62.4498L68.51 62.4998L68.49 62.5298L68.48 62.5598L68.44 62.6298L68.43 62.6597V62.6398L68.39 62.7197L68.36 62.7798L68.35 62.7997L68.31 62.8698L68.28 62.9197L68.26 62.9498V62.9598L68.23 63.0098L68.21 63.0397L68.2 63.0698L68.16 63.1398L68.14 63.1697L68.15 63.1597L68.11 63.2197L68.05 63.3098H68.06L68.04 63.3298L68.01 63.3798L68 63.4097L67.96 63.4598L67.95 63.4897L67.91 63.5397L67.89 63.5598V63.5698L67.87 63.5997L67.83 63.6597L67.8 63.7098L67.78 63.7397L67.76 63.7698L67.74 63.7997L67.7 63.8597L67.68 63.8898L67.69 63.8798L67.67 63.9097L67.63 63.9697L67.59 64.0298L67.55 64.0898L67.53 64.1097L67.51 64.1298L67.47 64.1998L67.45 64.2197L67.43 64.2498L67.41 64.2798L67.39 64.2997L67.33 64.3898L67.31 64.4197L67.33 64.3798L67.3 64.4398L67.25 64.4998L67.23 64.5198L67.17 64.6097L67.13 64.6597L67.1 64.6898L67.08 64.7197L67.04 64.7698L67.02 64.7897L67 64.8198L66.95 64.8798L66.94 64.8998L66.92 64.9197L66.89 64.9498L66.87 64.9797L66.83 65.0298L66.81 65.0598L66.79 65.0798L66.74 65.1398L66.72 65.1597L66.67 65.2098L66.63 65.2598L66.61 65.2897L66.59 65.3098L66.54 65.3698L66.5 65.4197L66.47 65.4398L66.45 65.4697L66.43 65.4897L66.4 65.5198L66.36 65.5698H66.35L64.19 63.5698ZM67.11 55.4498C67.01 53.4098 66.36 51.5098 65.31 49.8998L67.79 48.2997L67.8 48.3098V48.3198L67.84 48.3798L67.85 48.3998L67.87 48.4297L67.91 48.4897L67.93 48.5198L67.95 48.5497L67.96 48.5798L67.98 48.6097L68.02 48.6697L68.04 48.6998L68.05 48.7098L68.09 48.7798V48.7897L68.12 48.8398L68.16 48.9097L68.15 48.8998L68.17 48.9297L68.21 48.9897L68.23 49.0198L68.25 49.0497L68.27 49.0997L68.29 49.1298L68.32 49.1797L68.33 49.2098L68.34 49.2197L68.38 49.2897L68.39 49.3198L68.41 49.3497L68.45 49.4197L68.44 49.4097L68.47 49.4598L68.5 49.5298L68.51 49.5397L68.52 49.5698L68.55 49.6198L68.59 49.6898L68.6 49.7197V49.7098L68.63 49.7798L68.65 49.8098L68.66 49.8398L68.69 49.8898V49.8998L68.73 49.9697L68.75 50.0198L68.76 50.0497L68.78 50.0798L68.79 50.1097L68.81 50.1498L68.82 50.1797L68.85 50.2498L68.87 50.2798L68.86 50.2698L68.89 50.3398L68.93 50.4197L68.94 50.4498L68.97 50.5098L68.99 50.5598L69 50.5898L69.01 50.6198L69.03 50.6498L69.06 50.7297L69.07 50.7598L69.06 50.7498L69.1 50.8398L69.11 50.8597L69.12 50.8898L69.16 50.9797L69.17 51.0098L69.16 50.9998L69.18 51.0298L69.2 51.1097L69.23 51.1797L69.24 51.2098L69.25 51.2397L69.28 51.3098L69.29 51.3398L69.31 51.3898L69.33 51.4598V51.4697L69.37 51.5698L69.38 51.5997L69.39 51.6298L69.4 51.6597L69.42 51.7397L69.43 51.7798L69.44 51.8098L69.46 51.8597V51.8698L69.47 51.9097L69.49 51.9498L69.51 52.0298L69.52 52.0497V52.0798L69.54 52.1298L69.55 52.1597L69.56 52.1998L69.58 52.2798L69.59 52.2997L69.61 52.3798L69.63 52.4598V52.4797L69.65 52.5598L69.67 52.5997V52.6398L69.68 52.6597L69.7 52.7498L69.71 52.7897V52.8098L69.72 52.8497L69.73 52.8998L69.74 52.9197L69.75 52.9498L69.76 53.0397L69.77 53.0698L69.78 53.1097L69.79 53.1398V53.1697L69.81 53.2598L69.82 53.2997V53.2798L69.83 53.3597L69.84 53.4398L69.85 53.4697L69.87 53.5497V53.5798L69.88 53.6198L69.89 53.6597V53.6998L69.9 53.7698L69.91 53.8098V53.8398L69.92 53.8798L69.93 53.9197L69.94 53.9897V54.0298L69.95 54.0698V54.0997L69.96 54.1398V54.1697L69.97 54.2098L69.98 54.2897V54.3298L69.99 54.3597V54.4398L70 54.4697L70.01 54.5497V54.5898V54.6198L70.02 54.6998V54.7397V54.7297L70.03 54.8098L70.04 54.8998V54.8798V54.9197V54.9998L70.05 55.0397V55.0798V55.1097V55.1498L70.06 55.2297V55.2698V55.2997V55.3098L67.11 55.4498ZM63.38 47.6797C61.92 46.3997 60.12 45.4998 58.13 45.1198L58.69 42.2197H58.7L58.72 42.2297L58.76 42.2397L58.84 42.2498L58.88 42.2598L58.92 42.2698H58.94L58.99 42.2798L59.02 42.2897L59.05 42.2997L59.13 42.3098L59.16 42.3198L59.2 42.3298L59.28 42.3497H59.3L59.4 42.3798H59.42L59.45 42.3898L59.5 42.3998L59.58 42.4197H59.59L59.68 42.4498L59.71 42.4598H59.74L59.82 42.4897L59.86 42.4998L59.89 42.5098L59.92 42.5198L59.97 42.5298L60 42.5397H60.02L60.05 42.5497L60.15 42.5798L60.18 42.5898L60.2 42.5997L60.25 42.6097L60.28 42.6198L60.36 42.6498L60.39 42.6597L60.42 42.6697L60.46 42.6797L60.49 42.6898L60.54 42.6998L60.61 42.7297L60.63 42.7397L60.66 42.7498L60.71 42.7698L60.74 42.7798L60.77 42.7897L60.81 42.7997L60.88 42.8298L60.91 42.8398L60.95 42.8497L60.98 42.8597L61.01 42.8698L61.09 42.8998L61.12 42.9197L61.2 42.9498H61.21L61.26 42.9697L61.34 42.9998L61.37 43.0098L61.4 43.0298L61.43 43.0397L61.46 43.0497L61.49 43.0698L61.54 43.0898H61.56L61.63 43.1198L61.68 43.1498L61.71 43.1597L61.74 43.1697L61.77 43.1898L61.85 43.2197H61.83L61.87 43.2297L61.94 43.2598L61.97 43.2798L62 43.2897L62.07 43.3198L62.12 43.3497L62.11 43.3398L62.16 43.3698L62.21 43.3898L62.24 43.4097L62.28 43.4197L62.3 43.4398L62.38 43.4697L62.41 43.4897L62.44 43.4998L62.49 43.5298L62.52 43.5497H62.53L62.56 43.5698L62.65 43.6097L62.68 43.6298L62.67 43.6198L62.74 43.6597L62.8 43.6898L62.85 43.7197L62.92 43.7598L62.95 43.7798L63 43.8098L63.03 43.8298L63.06 43.8398L63.09 43.8597L63.16 43.8998L63.19 43.9197L63.18 43.9097L63.27 43.9598L63.31 43.9897L63.35 44.0098L63.42 44.0598L63.45 44.0698L63.48 44.0898L63.51 44.1097L63.53 44.1298L63.56 44.1398L63.59 44.1597L63.62 44.1797L63.71 44.2397L63.74 44.2598L63.79 44.2897L63.82 44.3098L63.88 44.3497L63.91 44.3698H63.9L63.95 44.3998L63.99 44.4297L64.02 44.4498L64.11 44.5098L64.14 44.5298L64.13 44.5198L64.16 44.5397L64.22 44.5798L64.24 44.5997L64.27 44.6198L64.3 44.6398L64.33 44.6597L64.41 44.7197L64.46 44.7598L64.52 44.7997L64.55 44.8198L64.63 44.8898L64.68 44.9197L64.73 44.9697H64.74L64.76 44.9897L64.81 45.0298L64.84 45.0497L64.9 45.0997L64.92 45.1198L64.94 45.1398L64.97 45.1597L65 45.1797L65.05 45.2297L65.08 45.2498L65.1 45.2698L65.16 45.3198L65.18 45.3398V45.3298L65.24 45.3798L65.29 45.4297L65.31 45.4498L65.33 45.4697L63.38 47.6797ZM55.19 44.9598C53.16 45.1098 51.28 45.7998 49.69 46.8998L48.01 44.4797L48.03 44.4598L48.06 44.4398L48.14 44.3798L48.16 44.3698L48.19 44.3497L48.26 44.3098L48.28 44.2897L48.31 44.2698L48.36 44.2397H48.37L48.43 44.1898L48.48 44.1597L48.51 44.1398L48.54 44.1298L48.57 44.1097L48.6 44.0898L48.63 44.0698L48.65 44.0598L48.74 43.9998H48.75L48.83 43.9498L48.86 43.9297L48.92 43.8998L48.98 43.8597L49.01 43.8398L49.06 43.8098H49.07L49.1 43.7897L49.15 43.7598L49.18 43.7498L49.23 43.7197L49.26 43.6998H49.27L49.34 43.6597L49.41 43.6198L49.4 43.6298L49.45 43.5997L49.52 43.5698L49.53 43.5598L49.56 43.5497L49.61 43.5198L49.64 43.4998H49.65L49.7 43.4697L49.77 43.4398L49.8 43.4197L49.83 43.4097L49.86 43.3898L49.91 43.3698L49.96 43.3398L49.95 43.3497L50 43.3198L50.07 43.2897L50.1 43.2798L50.13 43.2598L50.19 43.2397L50.22 43.2197L50.25 43.2098L50.32 43.1797L50.33 43.1697L50.36 43.1597L50.39 43.1498L50.42 43.1298L50.52 43.0898L50.55 43.0798H50.56L50.61 43.0497L50.64 43.0397L50.67 43.0298L50.71 43.0098L50.74 42.9998L50.81 42.9697L50.84 42.9598L50.89 42.9398L50.95 42.9197L50.97 42.9097L51.06 42.8698L51.09 42.8597L51.13 42.8497L51.16 42.8398L51.19 42.8298L51.27 42.7997L51.3 42.7897L51.33 42.7798L51.36 42.7698L51.39 42.7498L51.44 42.7397L51.48 42.7297L51.54 42.6998L51.59 42.6898L51.62 42.6797L51.63 42.6697L51.68 42.6597L51.71 42.6498L51.79 42.6198L51.83 42.6097L51.86 42.5997L51.91 42.5898L51.93 42.5798L52 42.5598L52.05 42.5397L52.08 42.5298L52.12 42.5198H52.14L52.17 42.5098L52.21 42.4998L52.25 42.4897L52.33 42.4598H52.36L52.39 42.4498L52.48 42.4297H52.46L52.51 42.4197L52.59 42.3998L52.61 42.3898L52.64 42.3798L52.69 42.3698L52.77 42.3497H52.79L52.87 42.3298L52.9 42.3198L52.94 42.3098L53.02 42.2997L53.05 42.2897L53.09 42.2798H53.12L53.15 42.2698L53.2 42.2598L53.23 42.2498L53.3 42.2397L53.34 42.2297L53.38 42.2197H53.41L53.45 42.2098L53.53 42.1898H53.56L53.59 42.1797H53.63L53.67 42.1697L53.71 42.1597L53.79 42.1498H53.82L53.86 42.1398H53.89L53.92 42.1298L54.01 42.1198L54.05 42.1097H54.08L54.11 42.0997H54.15L54.19 42.0898H54.22L54.31 42.0798L54.33 42.0698H54.37L54.46 42.0598H54.44H54.48L54.56 42.0497H54.6L54.63 42.0397L54.72 42.0298H54.76H54.74L54.82 42.0198H54.91H54.9H54.93L55 42.0098L55.19 44.9598ZM47.52 48.8898C46.28 50.3798 45.42 52.1898 45.09 54.1998L42.18 53.6998L42.19 53.6597L42.2 53.6198V53.5798L42.21 53.5497L42.22 53.5098L42.23 53.4297L42.24 53.3898V53.3597L42.25 53.3298L42.26 53.2997L42.27 53.2098L42.28 53.1697L42.29 53.1398V53.1097L42.3 53.0698L42.31 53.0397L42.32 52.9998L42.34 52.9197V52.8998L42.35 52.8497L42.37 52.7698V52.7498L42.4 52.6597V52.6398L42.41 52.5997L42.42 52.5598L42.43 52.5298L42.45 52.4598L42.46 52.4197L42.47 52.3798L42.48 52.3398L42.49 52.3098L42.51 52.2297L42.52 52.1998V52.1797L42.56 52.0397L42.57 52.0198V51.9998L42.6 51.9097L42.61 51.8698L42.62 51.8597L42.63 51.8098L42.64 51.7798L42.67 51.6998L42.68 51.6597L42.69 51.6298L42.7 51.5997L42.71 51.5698L42.73 51.5198L42.75 51.4398L42.79 51.3398L42.81 51.2798L42.82 51.2498L42.85 51.1697L42.86 51.1398L42.87 51.1097L42.88 51.0798L42.9 51.0397L42.92 50.9697L42.94 50.9398V50.9297L42.97 50.8597V50.8398L42.99 50.7897L43.02 50.7197L43.04 50.6898L43.03 50.6998L43.04 50.6697L43.07 50.5898L43.11 50.5198L43.12 50.4897L43.13 50.4697L43.17 50.3698L43.18 50.3398L43.19 50.3098L43.23 50.2397L43.22 50.2498L43.24 50.2197L43.27 50.1498L43.28 50.1097L43.3 50.0798L43.31 50.0497L43.33 50.0198L43.37 49.9297L43.38 49.9197L43.41 49.8398L43.45 49.7698L43.44 49.7798L43.46 49.7498L43.49 49.6797L43.51 49.6498L43.5 49.6597L43.53 49.6097L43.59 49.4998V49.4897L43.61 49.4498L43.65 49.3798L43.67 49.3497L43.68 49.3198L43.7 49.2897L43.71 49.2598L43.76 49.1797V49.1697L43.8 49.0997L43.83 49.0497L43.85 49.0198L43.89 48.9498L43.9 48.9297L43.94 48.8698L43.95 48.8398L43.98 48.7897L43.99 48.7798L44 48.7498L44.06 48.6597L44.05 48.6697L44.07 48.6398L44.11 48.5798L44.13 48.5497L44.15 48.5198L44.19 48.4598L44.21 48.4297L44.2 48.4398L44.23 48.3798L44.28 48.3198V48.3098L44.31 48.2598L44.36 48.1998L44.35 48.2098L44.37 48.1797L44.41 48.1097L44.45 48.0598L44.47 48.0298L44.5 47.9797L44.52 47.9498L44.57 47.8898L44.59 47.8597L44.58 47.8698L44.62 47.8098L44.64 47.7798L44.66 47.7598L44.71 47.6898L44.72 47.6797L44.74 47.6498L44.77 47.6097L44.8 47.5598L44.82 47.5397L44.84 47.5098L44.88 47.4598L44.9 47.4297L44.97 47.3497L44.99 47.3198L45.01 47.2897L45.05 47.2397L45.07 47.2098L45.09 47.1898L45.16 47.1097L45.17 47.0997L45.18 47.0898L45.25 46.9998L45.28 46.9598L47.52 48.8898ZM70.63 93.8898C70.82 93.8198 71.01 93.7497 71.2 93.6697L70.63 93.8898ZM70.63 93.8898L70.35 93.9998C70.44 93.9698 70.53 93.9298 70.63 93.8898ZM40.72 18.4297V15.4798V12.5298H43.67V18.3698C43.69 19.5598 43 20.6898 41.84 21.1598L41.81 21.1698C40.74 21.6298 39.45 21.4198 38.57 20.5398L37.9 19.8698L39.99 17.7898L40.66 18.4597L40.72 18.4297ZM40.72 3.82974C40.72 2.75974 41.19 1.79977 41.94 1.13977C41.99 1.16977 42.05 1.19977 42.1 1.22977L41.99 1.09976C42.61 0.579762 43.42 0.259766 44.29 0.259766H47.25H47.7V3.20975H44.3H44.29H44.28H44.26L44.24 3.21976H44.23H44.21H44.2H44.19H44.18H44.17L44.15 3.22977L44.13 3.23975H44.11H44.1H44.09V3.24976H44.08L44.07 3.25977H44.05L44.03 3.26974H44.02V3.27975H44.01L44 3.28976H43.98V3.29974L43.96 3.30975L43.95 3.31976L43.94 3.32974H43.93L43.92 3.33975L43.91 3.34976L43.89 3.35974L43.88 3.36975L43.9 3.34976L43.89 3.35974L43.87 3.36975L43.9 3.34976L43.91 3.33975L43.51 2.86975C43.61 3.15975 43.67 3.48976 43.67 3.81976V3.80975V3.76974V3.78976V3.80975V3.81976V3.82974V3.83975V9.56976H40.72V3.82974ZM68.52 0.259766C70.5 0.259766 72.09 1.85974 72.09 3.82974V6.78976C70.51 6.78976 69.22 5.53976 69.15 3.96976H69.14V3.83975V3.82974V3.81976V3.79974V3.77975V3.76974V3.75977V3.74976L69.13 3.72977V3.71976V3.70975V3.68976L69.12 3.66977L69.11 3.64975V3.62976L69.1 3.60974V3.59976L69.09 3.58975L69.08 3.56976V3.55975V3.54974H69.07V3.53976L69.06 3.52975V3.51974L69.05 3.49976L69.03 3.46976L69.02 3.45975L69 3.43976L68.99 3.41977L68.98 3.40976H68.97L68.95 3.38977V3.37976L68.93 3.36975L68.92 3.34976L68.94 3.36975L68.91 3.34976L68.89 3.33975L68.88 3.32974L68.87 3.31976L68.85 3.29974L68.82 3.28976L68.81 3.27975H68.8L68.78 3.26974L68.77 3.25977H68.75L68.74 3.24976H68.72V3.23975H68.7H68.69L68.67 3.22977H68.66H68.65L68.64 3.21976H68.62H68.61H68.6H68.59H68.58H68.57L68.56 3.20975H68.53H68.52H68.37V0.259766H68.52ZM83.08 7.43976C84.41 6.79976 86.05 7.02976 87.15 8.12976L89.24 10.2198C88.48 10.9898 87.39 11.2497 86.41 10.9897L86.13 11.2798L85.07 10.2298V10.2198L85.06 10.2097L85.04 10.1998V10.1898H85.03H85.02L85 10.1598H84.99L84.98 10.1497L84.96 10.1398V10.1298L84.92 10.1097H84.9L84.88 10.0998L84.87 10.0898H84.86L84.84 10.0797L84.82 10.0698H84.8L84.77 10.0598H84.76L84.74 10.0497H84.72H84.71L84.67 10.0398H84.65H84.64H84.63H84.62H84.61H84.59L84.55 10.0497H84.54H84.53H84.52L84.5 10.0598H84.49H84.48L84.46 10.0698H84.43L84.41 10.0797L84.39 10.0898L84.37 10.0998H84.35L84.33 10.1097L84.37 10.0998V10.0898L83.08 7.43976ZM104.28 25.2598C105.25 26.2198 105.55 27.5898 105.19 28.8098L102.37 27.9297V27.9498L102.36 27.9797L102.35 28.0098V27.9897L102.37 27.9398V27.9297V27.9197V27.9097L102.38 27.8898V27.8798V27.8698V27.8497V27.8398V27.8298V27.8198V27.7997V27.7897V27.7698V27.7598V27.7397V27.7297V27.7098V27.6998V27.6898L102.37 27.6697V27.6797L102.38 27.6898L102.2 27.3497L100.74 25.8998L102.83 23.8098L104.28 25.2598ZM103.46 31.1597L102.86 31.7498L99.28 35.3298L97.19 33.2397L101.37 29.0698L103.46 31.1597ZM108.58 40.3198C110.42 40.3198 111.94 41.7198 112.15 43.4998L109.21 43.8098L109.22 43.8497L109.21 43.8198V43.8298V43.8098V43.7897L109.2 43.7698V43.7498L109.19 43.7297L109.18 43.6998V43.6898V43.6797L109.17 43.6697V43.6597H109.16V43.6398L109.15 43.6298L109.14 43.6097V43.5997L109.12 43.5698L109.11 43.5497H109.1L109.09 43.5298L109.07 43.5098V43.4998H109.06V43.4897L109.05 43.4797L109.04 43.4697H109.03V43.4598H109.02V43.4498H109.01L109 43.4297H108.99V43.4197H108.98L108.96 43.3998L108.94 43.3898L108.92 43.3698L108.89 43.3597V43.3497L108.86 43.3398L108.85 43.3298H108.83L108.82 43.3198H108.81L108.8 43.3098H108.79L108.77 43.2997L108.74 43.2897H108.72H108.7L108.68 43.2798H108.67H108.66H108.64H108.62L108.59 43.2698H108.61H108.6H108.59H108.58H107.9V40.3198H108.58ZM112.17 68.1298C112.17 69.1898 111.7 70.1598 110.95 70.8098C110.04 70.3998 109.37 69.5298 109.24 68.4998L109.14 68.4398L109.13 68.4297V68.4498V68.4398L109.14 68.4297L109.15 68.4097L109.16 68.3898V68.3698H109.17V68.3597L109.18 68.3497V68.3398V68.3298L109.19 68.3098L109.2 68.2798V68.2698L109.21 68.2397V68.2197V68.2098V68.1998V68.1898V68.1797L109.22 68.1597V68.1298V68.1498V68.1398V68.1298V68.1198V64.1697H112.17V68.1298ZM109.31 71.6398C109.08 71.6898 108.83 71.7098 108.58 71.7098H105.63H103.41V68.7598H108.58H108.59H108.62H108.64L108.66 68.7498H108.67H108.68H108.69L108.77 68.7397L108.71 68.7498H108.69L109.31 71.6398ZM96.65 74.4498L99.73 77.5198L97.64 79.6097L93.46 75.4398L95.55 73.3497L96.65 74.4498ZM101.81 79.6097L104.28 82.0798C105.05 82.8398 105.39 83.8498 105.33 84.8398C104.44 85.1798 103.41 85.0698 102.61 84.5098L102.38 84.5397V84.5298V84.5198V84.5098L102.2 84.1697L99.73 81.6998L101.81 79.6097ZM104.46 86.9498C104.4 87.0098 104.34 87.0698 104.28 87.1298L102.2 89.2197L101.73 89.6898L100.29 91.1298L98.2 89.0397L102.2 85.0497V85.0397L102.21 85.0298L102.22 85.0198L102.23 85.0098V84.9998H102.24L102.25 84.9797L102.22 85.0198L104.46 86.9498ZM98.2 93.2197L94.03 97.3898L91.94 95.3098L96.11 91.1298L98.2 93.2197ZM90.42 101L87.77 103.66L85.68 101.57L89.85 97.3998L91.94 99.4797L90.42 101ZM85.34 105.25C84.21 105.48 82.98 105.15 82.1 104.27L80.01 102.18C80.48 101.72 81.06 101.45 81.66 101.35L82.51 100.51L84.19 102.19L84.2 102.2L84.22 102.21L84.23 102.22L84.26 102.24V102.25L84.28 102.26L84.29 102.27H84.3L84.34 102.3H84.35L84.37 102.31L84.39 102.32L84.41 102.33L84.43 102.34H84.46L84.48 102.35H84.49H84.5L84.52 102.36H84.53H84.54H84.55L84.59 102.37H84.61H84.62H84.63H84.64H84.65H84.67L84.71 102.36H84.72H84.74L84.76 102.35H84.77H84.78L85.34 105.25ZM73.44 95.5997L71.73 93.8898V95.0598V95.0698V96.6198V96.6298V99.3098H68.78V96.4998C68.26 96.1698 67.83 95.6798 67.6 95.0598C67.01 93.5498 67.76 91.8498 69.26 91.2598C69.27 91.2498 69.27 91.2498 69.28 91.2498H69.29L69.31 91.2397L69.33 91.2297H69.34L69.35 91.2197L69.38 91.2098L69.37 91.2197V91.2098L69.4 91.1998L69.42 91.1898L69.41 91.1998L69.44 91.1898H69.45V91.1797L69.48 91.1697L69.5 91.1597H69.52L69.54 91.1498L69.56 91.1398H69.57L69.6 91.1298L69.61 91.1198H69.63L70.05 90.9498L70.09 90.9398L70.1 90.9297H70.12L70.14 90.9197L70.25 90.8798C71.05 90.6098 71.88 90.6998 72.58 91.0598C73.03 91.1998 73.46 91.4398 73.82 91.8098L74.16 92.1498L73.88 92.4297C73.9 92.4797 73.92 92.5398 73.95 92.5898C74.36 93.6398 74.13 94.7897 73.44 95.5997ZM70.85 110.91C70.19 111.67 69.22 112.15 68.15 112.15H65.19C65.19 111.86 65.24 111.59 65.31 111.32V109.2H68.14H68.15H68.16L68.18 109.19H68.2H68.21H68.23H68.24L68.27 109.18H68.29H68.3L68.33 109.17L68.35 109.16H68.36L68.37 109.15H68.39V109.14H68.4H68.41L68.43 109.13L68.45 109.12V109.11L68.48 109.1L68.5 109.08L68.52 109.07L68.54 109.05H68.55V109.04H68.56L68.58 109.02L68.59 109.01L68.6 109L68.61 108.99L68.62 108.98L68.63 108.96V108.97L68.61 108.99L70.85 110.91ZM43.92 112.15C42.09 112.15 40.59 110.77 40.37 109L43.3 108.62V108.63V108.66V108.67L43.31 108.69V108.7V108.71L43.32 108.73V108.74L43.33 108.76V108.77L43.34 108.79V108.8L43.35 108.81H43.34L43.35 108.82V108.81L43.36 108.83V108.84L43.37 108.86L43.38 108.88L43.39 108.89L43.4 108.91L43.41 108.92L43.42 108.94L43.43 108.96L43.44 108.97L43.45 108.98L43.46 108.99L43.48 109.01L43.49 109.02L43.5 109.03H43.51V109.04L43.52 109.05L43.53 109.06L43.55 109.07L43.56 109.08L43.57 109.09L43.58 109.1H43.59L43.61 109.11V109.12H43.63L43.64 109.13H43.65L43.68 109.15H43.69L43.71 109.16H43.72L43.74 109.17L43.76 109.18H43.79H43.8L43.81 109.19H43.85H43.86H43.87H43.88L43.91 109.2H43.89H43.9H43.91H43.92H44.64V112.15H43.92ZM29.85 104.69C28.45 105.65 26.52 105.51 25.29 104.27L23.2 102.18C24.12 101.26 25.51 101.08 26.61 101.64L26.72 101.53L27.33 102.14C27.34 102.15 27.35 102.16 27.36 102.18H27.37V102.19L27.38 102.2L27.4 102.21L27.41 102.22L27.44 102.24V102.25L27.46 102.26L27.48 102.27L27.52 102.29L27.54 102.3L27.56 102.31L27.57 102.32L27.59 102.33L27.62 102.34L27.65 102.35H27.67H27.68L27.7 102.36H27.72H27.77L27.78 102.37H27.8H27.81H27.82H27.83H27.85L27.87 102.36H27.88H27.89H27.9H27.91H27.92L27.95 102.35H27.96H27.97H27.98V102.34H28L28.04 102.33L28.07 102.32V102.31H28.08L28.1 102.3L28.09 102.31H28.08H28.07L28.06 102.32H28.07V102.31H28.08H28.09L28.1 102.3L28.11 102.29H28.12L28.14 102.28L28.16 102.26L28.2 102.24L28.15 102.27L28.14 102.28L29.85 104.69ZM22.54 101.53L18.37 97.3497L20.46 95.2598L24.63 99.4398L22.54 101.53ZM16.28 95.2598L14.38 93.3597L12.11 91.0898L14.19 88.9998L18.37 93.1797L16.28 95.2598ZM8.15997 87.1298C7.33997 86.3198 7.00001 85.2098 7.14001 84.1398L7.73999 84.2098C8.22999 84.1398 8.74002 84.1998 9.21002 84.3698L10.07 84.4697H10.08L10.07 84.4797V84.5298L10.06 84.5598V84.5898V84.5997V84.6097V84.6198V84.6498L10.07 84.6898V84.6998V84.7098L10.08 84.7397V84.7498L10.09 84.7798V84.7997L10.1 84.8198L10.11 84.8398V84.8497L10.12 84.8597L10.13 84.8798V84.8998L10.16 84.9297V84.9398L10.17 84.9598L10.18 84.9697L10.19 84.9797L10.21 84.9998V85.0098H10.22V85.0198L10.23 85.0298L10.24 85.0397V85.0497L12.11 86.9097L10.02 88.9998L8.15997 87.1298ZM8.59003 81.6498L12.76 77.4697L14.85 79.5598L10.68 83.7397L8.59003 81.6498ZM3.85999 71.7098C2.52999 71.7098 1.37001 70.9897 0.76001 69.9097L3.33002 68.4598L3.32001 68.4498L3.29999 68.4197L3.31 68.4297L3.32001 68.4498L3.29999 68.4197L3.31 68.4398H3.32001L3.31 68.4197L3.33002 68.4598L3.34003 68.4797L3.35999 68.4998L3.37 68.5198L3.38 68.5298L3.39001 68.5397L3.40002 68.5598L3.41998 68.5698V68.5798H3.42999L3.44 68.5898V68.5997H3.45001L3.46002 68.6097L3.46997 68.6198L3.47998 68.6298L3.5 68.6398L3.51001 68.6498L3.52002 68.6597H3.53003L3.53998 68.6697L3.54999 68.6797H3.56L3.57001 68.6898H3.58002L3.59003 68.6998L3.62 68.7098H3.63L3.64001 68.7197H3.65002L3.65997 68.7297H3.67999L3.70001 68.7397L3.72998 68.7498H3.73999H3.78003H3.78998L3.79999 68.7598H3.82001H3.84998H3.83002H3.84003H3.84998H3.85999H6.01001V71.7098H3.85999ZM0.280029 43.9097C0.280029 42.8397 0.75 41.8697 1.5 41.2197C1.88 41.3897 2.22 41.6398 2.5 41.9598L1.81 40.9697C2.39 40.5597 3.08999 40.3198 3.85999 40.3198H6.81H7.58002V43.2698H3.85999H3.84998L3.82001 43.2798H3.79999H3.78998H3.78003L3.73999 43.2897H3.72998H3.70001L3.67999 43.2997L3.65997 43.3098H3.65002H3.64001L3.63 43.3198H3.62L3.59003 43.3398H3.58002L3.57001 43.3497H3.56L3.54999 43.3597H3.53998L3.53003 43.3698L3.52002 43.3798L3.5 43.3898L2.88 42.4998C3.09 42.8898 3.21998 43.3298 3.22998 43.8098H3.23999V43.8298V43.8497V43.8597V43.8698L3.22998 43.8998V43.9097V49.3298H0.280029V43.9097ZM16.65 38.8198L13.1 35.2698L15.19 33.1797L19.36 37.3597L17.28 39.4498L16.65 38.8198ZM11.01 33.1797L8.15997 30.3298C7.39997 29.5698 7.06 28.5498 7.12 27.5598C8.07 27.2098 9.16999 27.3598 9.98999 28.0198L10.09 27.9897V27.9797L10.08 27.9398V27.9598L10.09 27.9697L10.07 27.9297L10.08 27.9498L10.09 27.9797L10.11 28.0298V28.0397L10.12 28.0497L10.13 28.0698L10.14 28.0898L10.16 28.1298V28.1398L10.17 28.1498L10.18 28.1697H10.19L10.2 28.1898L10.21 28.1998V28.2098L10.22 28.2197H10.23L10.24 28.2297L10.25 28.2498L13.1 31.0997L11.01 33.1797ZM7.65997 25.8898C7.79997 25.6698 7.95997 25.4598 8.15997 25.2598L10.24 23.1797L11.76 21.6598L13.85 23.7397L10.25 27.3497H10.24L10.23 27.3597L10.22 27.3798L10.21 27.3898L10.19 27.4197H10.18L10.17 27.4398L10.16 27.4598L10.14 27.4897L7.65997 25.8898ZM26.58 7.30975C27.84 6.83975 29.32 7.11976 30.35 8.12976L32.43 10.2198C31.77 10.8898 30.87 11.1698 30 11.0698L29.55 11.5197L28.27 10.2298L28.25 10.2198L28.24 10.2097V10.1998L28.23 10.1898H28.22L28.21 10.1797L28.19 10.1598L28.17 10.1497L28.16 10.1398L28.14 10.1298L28.13 10.1198H28.11L28.09 10.1097L28.07 10.0998H28.08L28.06 10.0898L28.04 10.0797L28 10.0698L27.96 10.0598H27.95L27.92 10.0497H27.91H27.9L27.85 10.0398H27.83H27.82H27.81H27.8H27.78H27.77H27.76L27.75 10.0497H27.74H27.73H27.72H27.7L27.68 10.0598H27.67H27.65L27.62 10.0698L27.56 10.0898L26.58 7.30975ZM33.73 11.5197L34.94 12.7397L37.9 15.6998L35.81 17.7798L31.64 13.5998L33.73 11.5197ZM70.14 90.9197L70.22 90.8898H70.23L70.25 90.8798L70.14 90.9197ZM70.14 90.9197L70.17 90.9097H70.18L70.19 90.8998H70.21L70.14 90.9197ZM70.14 90.9197L70.16 90.9097H70.17L70.14 90.9197ZM71.42 96.7498H71.41V96.7598L71.42 96.7498ZM71.31 96.7897L71.3 96.7997L71.32 96.7897H71.31ZM69.29 91.2798H69.28L69.19 91.3298L69.29 91.2798ZM69.29 91.2798V91.2698L69.15 91.3497L69.28 91.2798H69.29ZM69.28 91.2598V91.2498L69.16 91.3098L69.28 91.2598ZM69.34 91.2297L69.38 91.2098L69.41 91.1998L69.43 91.1898H69.44L69.41 91.1998H69.42L69.44 91.1898L69.46 91.1797H69.47L69.45 91.1898H69.46L69.47 91.1797H69.48L69.45 91.1898L69.54 91.1498L69.52 91.1597H69.5V91.1697H69.48L69.47 91.1797L69.42 91.1998L69.43 91.1898L69.39 91.2098L69.35 91.2297H69.34ZM69.38 91.2098L69.41 91.1998L69.39 91.2098H69.38ZM69.41 91.1998L69.38 91.2098L69.35 91.2297L69.41 91.1998ZM69.48 91.1697V91.1797H69.47L69.48 91.1697ZM69.5 91.1697V91.1597H69.51H69.52L69.5 91.1697ZM69.5 91.1697H69.49L69.48 91.1797L69.5 91.1697ZM69.5 91.1597L69.53 91.1498H69.54H69.55L69.51 91.1597H69.5ZM69.51 91.1597L69.55 91.1398H69.56L69.51 91.1597ZM69.53 91.1597L69.41 91.2098H69.4L69.52 91.1597H69.53ZM69.71 91.0798H69.72H69.73L69.67 91.0997L69.63 91.1198L69.58 91.1398L69.57 91.1498L69.65 91.1198L69.69 91.0997L69.8 91.0497L69.75 91.0698H69.76L69.72 91.0798L69.74 91.0698H69.75L69.71 91.0798ZM69.3 91.2698L69.4 91.2197L69.43 91.2098L69.45 91.1998V91.1898L69.38 91.2197L69.3 91.2698ZM69.75 91.0698H69.76L69.77 91.0598L69.72 91.0798L69.75 91.0698ZM69.72 91.0798L69.63 91.1198L69.61 91.1298L69.69 91.0997L69.72 91.0798ZM69.73 91.0798L69.76 91.0698V91.0598L69.73 91.0798ZM69.78 91.0598H69.79L69.8 91.0497L69.78 91.0598ZM69.91 91.0098L69.95 90.9897H69.96L69.91 91.0098ZM69.94 90.9998L69.83 91.0497H69.81L69.92 91.0098L69.94 90.9998ZM69.99 90.9797L69.97 90.9897L70 90.9797L70.01 90.9697H70.02L69.99 90.9797ZM69.99 90.9797L70 90.9697H70.01H70.02L69.99 90.9797ZM69.92 90.9998L69.96 90.9897L69.93 90.9998H69.92ZM70.25 90.8798L70.12 90.9297C70.16 90.9097 70.21 90.8898 70.25 90.8798ZM44.16 3.22977L44.17 3.21976H44.16V3.22977ZM43.99 3.28976L43.97 3.29974L43.98 3.28976H43.99ZM44.02 3.27975L44.03 3.26974L44.01 3.27975H44.02ZM56.56 0.259766V3.20975H50.65V0.259766H56.56ZM65.42 0.259766V3.20975H59.51V0.259766H65.42ZM68.77 3.25977L68.78 3.26974H68.79L68.77 3.25977ZM72.09 12.8297H69.14V6.91977H72.09V12.8297ZM69.14 18.1398V15.7798H72.09V18.1398L74.6 15.6298L76.69 17.7198L74.18 20.2298C73.65 20.7598 72.91 21.0898 72.09 21.0898C70.46 21.0898 69.14 19.7698 69.14 18.1398ZM80.87 9.36975L82.96 11.4597L78.78 15.6298L76.69 13.5497L80.87 9.36975ZM85.03 10.1898H85.04L85.07 10.2097L85.03 10.1898ZM84.78 10.0598L84.77 10.0497V10.0598H84.78ZM84.46 10.0598H84.45V10.0698L84.46 10.0598ZM94.48 15.4597L92.39 17.5497L88.21 13.3698L90.3 11.2798L94.48 15.4597ZM100.74 21.7198L98.65 23.8098L94.48 19.6298L96.56 17.5497L100.74 21.7198ZM102.21 27.3698V27.3597H102.2V27.3497L102.21 27.3698ZM102.37 27.6697V27.6597V27.6498V27.6398L102.36 27.6198L102.35 27.5997V27.5898V27.5798L102.34 27.5598L102.33 27.5497V27.5397V27.5298H102.32L102.31 27.5098V27.4998L102.29 27.4697V27.4598L102.26 27.4297L102.25 27.4097H102.24L102.23 27.3898V27.3798H102.22L102.21 27.3698L102.37 27.6697ZM102.37 27.6398L102.36 27.6198V27.6298L102.37 27.6398ZM92.2 38.2297L95.1 35.3298L97.19 37.4197L94.29 40.3198H96.09V42.1198L96.38 42.4097C96.29 42.4997 96.19 42.5897 96.09 42.6597V43.2698H94.29C93.53 43.2698 92.78 42.9897 92.2 42.4097C91.05 41.2597 91.05 39.3897 92.2 38.2297ZM104.95 40.3198V43.2698H99.04V40.3198H104.95ZM109.21 43.8298V43.8398L109.22 43.8898L109.21 43.8298ZM109.17 43.6697L109.16 43.6498V43.6597L109.17 43.6697ZM109.07 43.5098L109.06 43.4897L109.07 43.4998V43.5098ZM112.17 52.3597H109.22V46.4498H112.17V52.3597ZM112.17 61.2098H109.22V55.3098H112.17V61.2098ZM108.59 68.7598H108.6H108.61H108.59ZM108.64 68.7598L108.65 68.7498V68.7598H108.64ZM94.55 71.7098V68.7598H100.46V71.7098H94.55ZM102.21 84.1797H102.2C102.2 84.1697 102.2 84.1697 102.2 84.1697L102.21 84.1797ZM102.37 84.4897V84.4697V84.4598L102.36 84.4398V84.4197L102.35 84.4097V84.3998L102.34 84.3798V84.3698H102.33V84.3497L102.32 84.3398L102.31 84.3198V84.3098L102.29 84.2897V84.2798L102.26 84.2397L102.25 84.2197H102.24L102.23 84.2098V84.1998H102.22L102.21 84.1797L102.37 84.4897ZM102.23 85.0098V84.9998L102.24 84.9897L102.23 85.0098ZM84.46 102.34L84.47 102.35H84.46V102.34ZM74.16 96.3198L76.25 94.2397L80.42 98.4197L78.33 100.5L74.16 96.3198ZM71.73 108.17H68.78V102.27H71.73V108.17ZM68.2 109.19H68.22H68.21H68.2ZM56.45 112.15V109.2H62.36V112.15H56.45ZM47.59 112.15V109.2H53.5V112.15H47.59ZM43.37 108.87L43.38 108.88V108.87H43.37ZM43.36 108.84L43.35 108.83L43.36 108.85V108.84ZM43.6 109.11L43.59 109.1H43.58L43.6 109.11ZM40.34 100.15H43.3V106.05H40.34V100.15ZM43.3 94.2698V97.1898H40.34V94.2698L38.24 96.3698L36.15 94.2897L38.25 92.1797H38.26C38.79 91.6497 39.53 91.3098 40.34 91.3098C41.97 91.3098 43.3 92.6398 43.3 94.2698ZM31.98 102.64L29.89 100.55L34.06 96.3798L36.15 98.4598L31.98 102.64ZM27.41 102.22H27.4L27.37 102.19L27.41 102.22ZM27.52 102.29V102.3L27.54 102.31L27.52 102.29ZM10.08 84.7598V84.7498L10.07 84.7397L10.08 84.7598ZM10.08 84.7698L10.09 84.7798H10.08V84.7698ZM10.24 85.0397L10.25 85.0497L10.27 85.0698L10.24 85.0397ZM20.61 73.7997L16.94 77.4697L14.85 75.3898L18.53 71.7098H17.82V70.9998L16.44 69.6198C16.83 69.2298 17.31 68.9698 17.82 68.8398V68.7598H18.53C19.28 68.7598 20.04 69.0498 20.61 69.6198C21.77 70.7798 21.77 72.6497 20.61 73.7997ZM8.96002 71.7098V68.7598H14.86V71.7098H8.96002ZM3.42999 68.5798V68.5898H3.44L3.42999 68.5798ZM0.280029 61.1398H3.22998V67.0397H0.280029V61.1398ZM0.280029 52.2798H3.22998V58.1797H0.280029V52.2798ZM3.84998 43.2698H3.84003H3.83002H3.84998ZM16.44 40.3198V43.2698H10.53V40.3198H16.44ZM18.03 15.3898L20.11 17.4798L15.94 21.6598L13.85 19.5698L18.03 15.3898ZM24.29 9.12976L26.38 11.2198L22.2 15.3898L20.11 13.3098L24.29 9.12976ZM28.07 10.0898H28.05H28.06H28.07ZM27.66 10.0598H27.67V10.0497L27.66 10.0598ZM27.65 10.0598L27.63 10.0698L27.64 10.0598H27.65Z" fill="#85BDE1"/>
</svg>
