<?xml version="1.0" encoding="UTF-8"?>
<!DOCTYPE svg PUBLIC "-//W3C//DTD SVG 1.1//EN" "http://www.w3.org/Graphics/SVG/1.1/DTD/svg11.dtd">
<!-- Creator: CorelDRAW 2018 (64-Bit) -->
<svg xmlns="http://www.w3.org/2000/svg" xml:space="preserve" width="160px" height="172px" version="1.1" style="shape-rendering:geometricPrecision; text-rendering:geometricPrecision; image-rendering:optimizeQuality; fill-rule:evenodd; clip-rule:evenodd"
viewBox="0 0 225.31 242.12"
 xmlns:xlink="http://www.w3.org/1999/xlink">
 <defs>
  <style type="text/css">
   <![CDATA[
    .fil3 {fill:#6A4026}
    .fil1 {fill:#6C2934}
    .fil2 {fill:#7A313D}
    .fil4 {fill:#895333}
    .fil0 {fill:#4B171D;fill-rule:nonzero}
   ]]>
  </style>
 </defs>
 <g id="Слой_x0020_1">
  <metadata id="CorelCorpID_0Corel-Layer"/>
  <g id="_2255711149616">
   <path class="fil0" d="M32.7 65.43l49.77 0 0.97 -1.52 0.33 -0.45c1.06,-1.51 2.24,-2.92 3.55,-4.23l46.31 -46.34 0.38 -0.35c3.04,-2.95 6.53,-5.19 10.24,-6.72 4.02,-1.67 8.29,-2.5 12.51,-2.5 4.22,0 8.48,0.83 12.51,2.5 3.89,1.61 7.51,3.97 10.61,7.07l32.54 32.54 0.74 0.82c0.16,0.15 0.39,0.42 0.7,0.81 2.65,3.01 4.64,6.35 5.98,9.86 1.43,3.75 2.15,7.7 2.15,11.63 0,4.23 -0.83,8.48 -2.5,12.5 -1.53,3.68 -3.75,7.14 -6.66,10.16 -8.6,9.78 -20.37,20.43 -29.79,29.85l29.38 29.38c3.1,3.1 5.46,6.72 7.07,10.62 1.67,4.02 2.5,8.28 2.5,12.5 0,4.21 -0.84,8.46 -2.5,12.47l-0.01 0.02c-1.48,3.62 -3.66,7.02 -6.52,10.01 -0.17,0.22 -0.35,0.43 -0.54,0.62l-32.54 32.55c-3.1,3.1 -6.72,5.46 -10.61,7.07 -4.03,1.66 -8.29,2.5 -12.51,2.5 -4.22,0 -8.49,-0.84 -12.51,-2.5 -3.89,-1.61 -7.52,-3.97 -10.62,-7.07l-46.32 -46.33c-1.4,-1.39 -2.67,-2.94 -3.81,-4.6l-0.93 -1.44 -49.87 0c-4.4,0 -8.62,-0.89 -12.49,-2.5 -4.01,-1.66 -7.62,-4.09 -10.62,-7.09 -3,-3 -5.43,-6.61 -7.09,-10.62 -1.61,-3.87 -2.5,-8.1 -2.5,-12.5l0 -46.02c0,-4.39 0.89,-8.62 2.5,-12.49 1.66,-4.01 4.09,-7.62 7.09,-10.62l0.38 -0.35c2.94,-2.85 6.41,-5.16 10.23,-6.74 3.88,-1.61 8.1,-2.5 12.5,-2.5zm65.52 26.86l-65.52 0c-1.49,0 -2.87,0.57 -3.91,1.5l-0.21 0.22c-1.06,1.06 -1.72,2.52 -1.72,4.12l0 46.02c0,1.51 0.56,2.88 1.48,3.9l0.24 0.23c1.06,1.06 2.52,1.72 4.12,1.72l65.52 0 0 0.02 0.06 0c0.75,-0.06 1.53,0.01 2.29,0.23 3.34,0.98 5.25,4.48 4.27,7.82 -0.31,1.02 -0.33,2.13 -0.06,3.18 0.22,0.89 0.65,1.73 1.28,2.44l46.57 46.55c1.11,1.13 2.62,1.7 4.13,1.7 1.42,0 2.82,-0.49 3.91,-1.47 2.65,-2.79 32.72,-32.77 32.78,-32.77 1.12,-1.11 1.68,-2.62 1.68,-4.13 0,-1.51 -0.57,-3.01 -1.7,-4.14l-43.91 -43.91c-2.47,-2.46 -2.47,-6.46 0,-8.92l43.93 -43.91c1.11,-1.12 1.68,-2.63 1.68,-4.14 0,-1.41 -0.49,-2.82 -1.48,-3.91 -2.79,-2.67 -32.76,-32.71 -32.76,-32.78 -1.11,-1.12 -2.61,-1.68 -4.13,-1.68l0 -0.02c-1.4,0 -2.81,0.5 -3.92,1.49 -3.78,3.96 -46.48,46.56 -46.56,46.56 -0.78,0.77 -1.28,1.71 -1.52,2.7 -0.26,1.05 -0.22,2.17 0.1,3.21 0.2,0.68 0.3,1.4 0.27,2.15 -0.14,3.47 -3.08,6.16 -6.55,6.01l-0.36 0.01zm5.85 50.36l0 -43.17c0,-1.62 0.61,-3.23 1.84,-4.46 2.47,-2.47 6.46,-2.47 8.93,0l21.58 21.58c2.44,2.46 2.45,6.44 0,8.9 -4.3,4.3 -21.05,23.46 -26.04,23.46 -3.49,0 -6.31,-2.83 -6.31,-6.31z"/>
   <path class="fil1" d="M32.7 85.98l65.52 0c0.21,0 0.42,0.01 0.63,0.02 -1.31,-4.19 -0.31,-8.95 2.98,-12.25l46.33 -46.33c4.73,-4.73 12.47,-4.73 17.19,0l32.54 32.54c4.73,4.72 4.73,12.46 0,17.19l-43.91 43.91 43.91 43.91c4.73,4.73 4.73,12.46 0,17.19l-32.54 32.54c-4.72,4.73 -12.46,4.73 -17.19,0l-46.33 -46.33c-3.25,-3.25 -4.26,-7.93 -3.04,-12.08 -0.18,0.01 -0.37,0.02 -0.57,0.02l-65.52 0c-6.68,0 -12.15,-5.47 -12.15,-12.16l0 -46.01c0,-6.69 5.47,-12.16 12.15,-12.16zm77.68 13.5c0,14.39 0,28.78 0,43.16 7.19,-7.19 14.39,-14.38 21.58,-21.58 -7.19,-7.19 -14.39,-14.39 -21.58,-21.58z"/>
   <path class="fil0" d="M24.7 65.43l15.72 0c3.3,0 6.48,0.68 9.4,1.89 3,1.25 5.71,3.08 7.98,5.35l0.13 0.13c2.25,2.27 4.07,4.96 5.3,7.93 1.22,2.92 1.89,6.1 1.89,9.4l0 62.03c0,3.31 -0.67,6.51 -1.89,9.44l-0.16 0.37c-1.25,2.87 -3.03,5.46 -5.2,7.64 -0.23,0.25 -0.61,0.6 -1.12,1.04l-1.03 0.83c-2.12,1.69 -4.56,3.05 -7.22,3.99 -2.56,0.89 -5.29,1.39 -8.08,1.39l-15.72 0c-3.32,0 -6.51,-0.67 -9.44,-1.89 -3.04,-1.26 -5.76,-3.09 -8.02,-5.35l-0.36 -0.39c-2.09,-2.18 -3.79,-4.77 -4.98,-7.63 -1.23,-2.93 -1.9,-6.13 -1.9,-9.44l0 -62.03c0,-3.3 0.67,-6.48 1.89,-9.4 1.14,-2.76 2.79,-5.28 4.82,-7.43 0.16,-0.22 0.34,-0.42 0.54,-0.62 2.25,-2.27 4.97,-4.1 8.01,-5.36l0.37 -0.14c2.83,-1.13 5.9,-1.75 9.07,-1.75z"/>
   <path class="fil2" d="M110.38 142.64l21.58 -21.58c8.03,-3.45 15.93,-2.89 22.02,0l16.21 16.21c-25.24,-14.91 -55.41,2.25 -59.81,5.37z"/>
   <rect class="fil3" x="20.55" y="85.98" width="24.02" height="70.33" rx="3.74" ry="12.16"/>
   <rect class="fil4" x="20.65" y="85.98" width="23.82" height="22.35" rx="2.76" ry="2.76"/>
   <path class="fil0" d="M206.96 144.99l11.12 11.11c0.24,0.24 0.45,0.49 0.64,0.75 2.04,2.21 3.6,4.68 4.7,7.29 1.26,3.04 1.89,6.25 1.89,9.42 0,6.3 -2.41,12.63 -7.24,17.46l-43.85 43.87 -0.39 0.36c-2.26,2.16 -4.84,3.81 -7.6,4.94 -2.64,1.08 -5.45,1.69 -8.29,1.82 -0.38,0.07 -0.78,0.11 -1.18,0.11 -6.31,0 -12.65,-2.41 -17.47,-7.23l-11.11 -11.11c-2.34,-2.34 -4.12,-5.08 -5.34,-8.03 -1.26,-3.05 -1.89,-6.26 -1.89,-9.44 0,-0.4 0.03,-0.8 0.11,-1.18 0.13,-2.83 0.74,-5.64 1.82,-8.29 1.21,-2.94 2.98,-5.67 5.3,-7.99l43.86 -43.86 0.39 -0.36c2.26,-2.18 4.86,-3.84 7.64,-4.98 3.04,-1.26 6.25,-1.9 9.43,-1.9 6.29,0 12.62,2.42 17.44,7.24l0.02 0z"/>
   <rect class="fil3" transform="matrix(-0.128654 -0.128654 -0.418533 0.418533 206.488 173.567)" width="132.02" height="118.82" rx="20.54" ry="20.54"/>
   <rect class="fil4" transform="matrix(-0.4843 -0.4843 -0.4843 0.4843 206.415 173.494)" width="34.77" height="32.64" rx="4.03" ry="4.03"/>
   <path class="fil0" d="M217.74 86.33l-10.79 10.79c-2.32,2.35 -5.06,4.13 -8.01,5.35 -3.04,1.26 -6.26,1.89 -9.44,1.89 -3.17,0 -6.39,-0.63 -9.44,-1.89 -2.95,-1.22 -5.68,-3 -8.02,-5.33l-43.86 -43.86c-2.32,-2.33 -4.09,-5.06 -5.3,-8l-0.14 -0.38c-0.99,-2.54 -1.55,-5.22 -1.68,-7.91 -0.08,-0.38 -0.11,-0.78 -0.11,-1.18 0,-6.31 2.41,-12.65 7.23,-17.47l11.13 -11.1c2.32,-2.35 5.06,-4.13 8.01,-5.35 3.04,-1.26 6.26,-1.89 9.44,-1.89 0.39,0 0.78,0.04 1.15,0.1 2.83,0.14 5.64,0.75 8.29,1.83l0.02 0.01c2.95,1.2 5.68,2.97 8,5.29l43.86 43.86c2.34,2.33 4.12,5.07 5.34,8.02 1.26,3.05 1.89,6.26 1.89,9.44 0,3.18 -0.63,6.39 -1.89,9.43 -1.1,2.61 -2.66,5.09 -4.7,7.29 -0.19,0.26 -0.4,0.51 -0.64,0.75l-0.34 0.31z"/>
   <path class="fil2" d="M64.5 86.06c13.51,0 20.84,-0.07 34.35,-0.06 -1.52,-4.24 -0.19,-9.15 3.45,-12.72 9.96,-9.96 17.91,-17.69 23.22,-23.35l10.92 11.61c-7.9,8.54 -27.92,21.31 -26.06,37.94l-45.52 -0.57 -0.36 -12.85z"/>
   <rect class="fil3" transform="matrix(-0.128654 0.128654 -0.418533 -0.418533 206.488 68.5528)" width="132.02" height="118.82" rx="20.54" ry="20.54"/>
   <path class="fil4" d="M141.9 37.93l12.93 12.94c1.08,1.07 2.83,1.07 3.91,0l13.01 -12.94c1.08,-1.07 1.08,-2.83 0,-3.91l-12.93 -12.93c-1.08,-1.07 -2.83,-1.07 -3.91,0l-13.01 12.94c-1.08,1.07 -1.08,2.83 0,3.9z"/>
  </g>
 </g>
</svg>
